<svg width="36" height="36" viewBox="0 0 36 36" fill="none" xmlns="http://www.w3.org/2000/svg">
<path d="M5 10.1972C5 9.06626 5 8.50081 5.22358 8.07041C5.41198 7.70771 5.70771 7.41198 6.07041 7.22358C6.50081 7 7.06626 7 8.19716 7H14.0787C14.4164 7 14.5853 7 14.746 7.02657C15.0546 7.07755 15.3468 7.2007 15.5987 7.38597C15.73 7.48251 15.8479 7.60338 16.0837 7.84512C16.3195 8.08686 16.4375 8.20773 16.5687 8.30427C16.8207 8.48955 17.1129 8.61269 17.4214 8.66368C17.5822 8.69025 17.7511 8.69025 18.0888 8.69025H24.0314C25.1623 8.69025 25.7277 8.69025 26.1581 8.91382C26.5208 9.10223 26.8165 9.39796 27.0049 9.76065C27.2285 10.1911 27.2285 10.7565 27.2285 11.8874V27.3746C27.2285 27.9401 27.2285 28.2228 27.1167 28.438C27.0225 28.6193 26.8747 28.7672 26.6933 28.8614C26.4781 28.9732 26.1954 28.9732 25.6299 28.9732H7.87745C6.85963 28.9732 6.35073 28.9732 5.96337 28.772C5.63694 28.6024 5.37078 28.3362 5.20122 28.0098C5 27.6225 5 27.1136 5 26.0957V10.1972Z" fill="url(#paint0_linear_202_14853)"/>
<path d="M10.719 15.411C10.9999 14.445 11.1404 13.9619 11.5113 13.6836C11.8821 13.4053 12.3849 13.4053 13.3905 13.4053H27.5737C29.1573 13.4053 29.9491 13.4053 30.3663 13.9195C30.7835 14.4337 30.6204 15.2085 30.2942 16.7582L28.1817 26.7926C27.959 27.8501 27.8477 28.3788 27.4649 28.6894C27.082 29.0001 26.5417 29.0001 25.4611 29.0001H6.37671C7.22579 28.0767 7.22579 27.1533 8.07487 24.3832C8.65731 22.483 9.9589 18.0241 10.719 15.411Z" fill="url(#paint1_radial_202_14853)" fill-opacity="0.2"/>
<path d="M13.3904 13.5566H27.574C28.3701 13.5566 28.9508 13.5568 29.3855 13.6191C29.8161 13.6809 30.0746 13.8001 30.2488 14.0146C30.4229 14.2293 30.486 14.5064 30.4578 14.9404C30.4292 15.3786 30.3103 15.9474 30.1462 16.7266L28.0339 26.7617C27.9219 27.2938 27.8397 27.6793 27.74 27.9717C27.6415 28.2602 27.5309 28.4416 27.3699 28.5723C27.2089 28.7029 27.0091 28.7736 26.7068 28.8105C26.4001 28.848 26.0048 28.8486 25.4607 28.8486H6.69897C7.00878 28.4421 7.19249 28.0106 7.37085 27.4287C7.47795 27.0793 7.58441 26.6712 7.71655 26.1826C7.84901 25.6929 8.00798 25.1178 8.21948 24.4277C8.80231 22.5262 10.1041 18.0658 10.864 15.4531C11.0054 14.967 11.1082 14.6148 11.2205 14.3486C11.3313 14.086 11.4462 13.9219 11.6023 13.8047C11.7584 13.6876 11.9474 13.6239 12.2302 13.5908C12.5171 13.5573 12.884 13.5566 13.3904 13.5566Z" stroke="url(#paint2_linear_202_14853)" stroke-opacity="0.5" stroke-width="0.302846"/>
<path d="M7.14355 9.45556C7.14355 8.95586 7.54864 8.55078 8.04833 8.55078H11.7165C12.2162 8.55078 12.6213 8.95586 12.6213 9.45556C12.6213 9.95525 12.2162 10.3603 11.7165 10.3603H8.04833C7.54864 10.3603 7.14355 9.95525 7.14355 9.45556Z" fill="url(#paint3_linear_202_14853)"/>
<defs>
<linearGradient id="paint0_linear_202_14853" x1="2.67818" y1="18.0029" x2="24.4276" y2="26.5714" gradientUnits="userSpaceOnUse">
<stop stop-color="#6ADAFF"/>
<stop offset="1" stop-color="#2D3393"/>
</linearGradient>
<radialGradient id="paint1_radial_202_14853" cx="0" cy="0" r="1" gradientUnits="userSpaceOnUse" gradientTransform="translate(18.6884 21.2027) rotate(90) scale(7.79739 12.3117)">
<stop stop-color="#86EBFF" stop-opacity="0.2"/>
<stop offset="1" stop-color="#86EBFF"/>
</radialGradient>
<linearGradient id="paint2_linear_202_14853" x1="5.14554" y1="14.5192" x2="13.8495" y2="35.5087" gradientUnits="userSpaceOnUse">
<stop stop-color="white"/>
<stop offset="0.765625" stop-color="white" stop-opacity="0"/>
</linearGradient>
<linearGradient id="paint3_linear_202_14853" x1="6.72723" y1="8.42987" x2="14.2134" y2="10.6617" gradientUnits="userSpaceOnUse">
<stop offset="0.298077" stop-color="white"/>
<stop offset="1" stop-color="white" stop-opacity="0"/>
</linearGradient>
</defs>
</svg>
