<svg width="48" height="48" viewBox="0 0 48 48" fill="none" xmlns="http://www.w3.org/2000/svg">
<path d="M29 31.4545L23.6875 26L12 38M34 10V18M30 14H38M12.1111 19H26.8889C28.0548 19 29 19.9452 29 21.1111V35.8889C29 37.0548 28.0548 38 26.8889 38H12.1111C10.9452 38 10 37.0548 10 35.8889V21.1111C10 19.9452 10.9452 19 12.1111 19ZM17 24.5C17 25.3284 16.3284 26 15.5 26C14.6716 26 14 25.3284 14 24.5C14 23.6716 14.6716 23 15.5 23C16.3284 23 17 23.6716 17 24.5Z" stroke="white" stroke-width="2" stroke-linecap="round" stroke-linejoin="round"/>
</svg>
