<svg width="36" height="36" viewBox="0 0 36 36" fill="none" xmlns="http://www.w3.org/2000/svg">
<path fill-rule="evenodd" clip-rule="evenodd" d="M18 6.64044C15.6331 6.64044 13.7143 8.41369 13.7143 10.6011V18.5224C13.7143 19.2516 13.0747 19.8426 12.2857 19.8426C11.4968 19.8426 10.8572 19.2516 10.8572 18.5224V10.6011C10.8572 6.95541 14.0551 4 18 4C21.9449 4 25.1429 6.95541 25.1429 10.6011V18.5224C25.1429 19.2516 24.5033 19.8426 23.7143 19.8426C22.9253 19.8426 22.2858 19.2516 22.2858 18.5224V10.6011C22.2858 8.41369 20.367 6.64044 18 6.64044Z" fill="url(#paint0_linear_202_14847)"/>
<rect x="8" y="12.252" width="20" height="16.7479" rx="3.02846" fill="url(#paint1_radial_202_14847)" fill-opacity="0.2"/>
<rect x="8.15142" y="12.4034" width="19.6972" height="16.4451" rx="2.87703" stroke="url(#paint2_linear_202_14847)" stroke-opacity="0.5" stroke-width="0.302846"/>
<path d="M17.8806 18.2578C19.1298 18.2578 20.1433 19.2308 20.1433 20.4307C20.1432 21.3473 19.5508 22.1293 18.7146 22.4482V25.1191C18.7146 25.5794 18.3409 25.9531 17.8806 25.9531C17.4205 25.9529 17.0476 25.5793 17.0476 25.1191V22.4482C16.2113 22.1294 15.619 21.3474 15.6189 20.4307C15.6189 19.231 16.6316 18.258 17.8806 18.2578Z" fill="url(#paint3_linear_202_14847)"/>
<defs>
<linearGradient id="paint0_linear_202_14847" x1="9.365" y1="11.9331" x2="23.7396" y2="16.981" gradientUnits="userSpaceOnUse">
<stop stop-color="#6ADAFF"/>
<stop offset="1" stop-color="#2D3393"/>
</linearGradient>
<radialGradient id="paint1_radial_202_14847" cx="0" cy="0" r="1" gradientUnits="userSpaceOnUse" gradientTransform="translate(18 20.6259) rotate(90) scale(8.37397 10)">
<stop stop-color="#86EBFF" stop-opacity="0.2"/>
<stop offset="1" stop-color="#86EBFF"/>
</radialGradient>
<linearGradient id="paint2_linear_202_14847" x1="7" y1="13.4482" x2="18.1368" y2="33.7599" gradientUnits="userSpaceOnUse">
<stop stop-color="white"/>
<stop offset="0.765625" stop-color="white" stop-opacity="0"/>
</linearGradient>
<linearGradient id="paint3_linear_202_14847" x1="19.5984" y1="18.0157" x2="18.3735" y2="23.9585" gradientUnits="userSpaceOnUse">
<stop offset="0.254808" stop-color="#F9FFFC"/>
<stop offset="1" stop-color="#F7FBFF" stop-opacity="0.28"/>
</linearGradient>
</defs>
</svg>
