<svg width="90" height="20" viewBox="0 0 90 20" fill="none" xmlns="http://www.w3.org/2000/svg">
<path d="M34.8595 14.0731V0H31.3346V13.7957C31.3346 18.3859 33.1737 20 37.3627 20V16.797C35.6769 16.8474 34.8595 16.1412 34.8595 14.0731Z" fill="white"/>
<path d="M42.8059 5.62421H39.281V19.9243H42.8059V5.62421Z" fill="white"/>
<path d="M41.0434 0C39.9004 0 39.083 0.805801 39.083 1.93569C39.083 3.06557 39.8991 3.87137 41.0434 3.87137C42.1877 3.87137 43.0038 3.06557 43.0038 1.93569C43.0038 0.805801 42.1877 0 41.0434 0Z" fill="white"/>
<path d="M52.1379 5.34678C50.3499 5.34678 48.9195 6.05296 48.2299 6.86002V5.62421H44.705V19.9243H48.2299V11.7024C48.2299 9.73518 49.4559 8.44893 51.4227 8.44893C53.3895 8.44893 54.6156 9.73518 54.6156 11.7024V19.9243H58.1405V11.7024C58.1405 7.5662 55.8416 5.34678 52.1379 5.34678Z" fill="white"/>
<path d="M63.5645 12.3329V8.80202H67.728V5.62421H63.5645V1.84111H60.0396V12.005C60.0396 17.3518 61.7254 19.9243 67.728 19.9243V16.797C64.3563 16.8474 63.5645 15.2333 63.5645 12.3329Z" fill="white"/>
<path d="M73.8314 13.7289L72.5147 13.319C71.9464 13.1412 71.4955 12.7062 71.304 12.1475L70.7676 10.5851C70.7612 10.5637 70.7497 10.546 70.7369 10.5284C70.7305 10.5208 70.7241 10.512 70.7152 10.5044C70.696 10.4868 70.673 10.4704 70.6462 10.4603C70.6386 10.4565 70.6283 10.454 70.6181 10.4527C70.6041 10.4477 70.5875 10.4464 70.5709 10.4464C70.5543 10.4464 70.5377 10.4477 70.5236 10.4527C70.5134 10.454 70.5045 10.4578 70.4955 10.4603C70.4662 10.4716 70.4419 10.488 70.4215 10.5082C70.4112 10.5158 70.4049 10.5259 70.3985 10.5359C70.3882 10.5511 70.3806 10.5662 70.3742 10.5839L69.8378 12.1463C69.645 12.7049 69.1954 13.14 68.6258 13.3178L67.3091 13.7276C67.2094 13.7579 67.1405 13.8499 67.1405 13.9533C67.1405 14.0567 67.2031 14.14 67.2963 14.1765L68.7356 14.7213C69.2414 14.913 69.6386 15.3127 69.8237 15.8184L70.3704 17.3077C70.3755 17.3203 70.3844 17.3291 70.3921 17.3405C70.3959 17.348 70.3997 17.3543 70.4048 17.3607C70.4138 17.372 70.4215 17.3821 70.4329 17.3909C70.4495 17.4061 70.4687 17.4199 70.4904 17.4288C70.5032 17.4338 70.516 17.4388 70.53 17.4401L70.5722 17.4451C70.5849 17.4451 70.5977 17.4439 70.6117 17.4401C70.6245 17.4388 70.6373 17.4338 70.6513 17.4288C70.6718 17.4199 70.6909 17.4073 70.7075 17.3922C70.719 17.3834 70.7267 17.372 70.7356 17.3607C70.7407 17.3531 70.7458 17.3455 70.751 17.3367C70.7561 17.3266 70.765 17.319 70.7688 17.3077L71.3154 15.8184C71.5019 15.314 71.8991 14.913 72.4048 14.7213L73.8442 14.1765C73.9374 14.1412 73.9974 14.053 73.9974 13.9533C73.9974 13.8499 73.931 13.7579 73.8289 13.7276L73.8314 13.7289Z" fill="white"/>
<path d="M19.7037 5.57251C19.9183 4.14628 20.696 3.47541 22.1494 3.29634L29.4342 3.35435V0.037831H21.2375C17.6105 0.301387 16 2.01009 16 6.20429V19.9622H19.6948V11.8159H27.4687V8.58764H19.6948V5.92686C19.6948 5.80454 19.6986 5.686 19.705 5.57377L19.7037 5.57251Z" fill="white"/>
</svg>
