<svg width="48" height="48" viewBox="0 0 48 48" fill="none" xmlns="http://www.w3.org/2000/svg">
<rect x="8" y="8" width="32" height="32" rx="16" fill="#4F5669"/>
<path d="M32 29.4444C32 29.857 31.8468 30.2527 31.574 30.5444C31.3012 30.8361 30.9312 31 30.5455 31H17.4545C17.0688 31 16.6988 30.8361 16.426 30.5444C16.1532 30.2527 16 29.857 16 29.4444V20.8889C16 20.4763 16.1532 20.0807 16.426 19.7889C16.6988 19.4972 17.0688 19.3333 17.4545 19.3333H20.3636L21.8182 17H26.1818L27.6364 19.3333H30.5455C30.9312 19.3333 31.3012 19.4972 31.574 19.7889C31.8468 20.0807 32 20.4763 32 20.8889V29.4444Z" stroke="white" stroke-width="1.5" stroke-linecap="round" stroke-linejoin="round"/>
<path d="M24 28C25.6569 28 27 26.6569 27 25C27 23.3431 25.6569 22 24 22C22.3431 22 21 23.3431 21 25C21 26.6569 22.3431 28 24 28Z" stroke="white" stroke-width="1.5" stroke-linecap="round" stroke-linejoin="round"/>
</svg>
