<svg width="24" height="24" viewBox="0 0 24 24" fill="none" xmlns="http://www.w3.org/2000/svg">
<path d="M24 5C24 5.82843 23.3284 6.5 22.5 6.5C21.6716 6.5 21 5.82843 21 5C21 4.17157 21.6716 3.5 22.5 3.5C23.3284 3.5 24 4.17157 24 5Z" fill="white"/>
<path d="M24 12C24 12.8284 23.3284 13.5 22.5 13.5C21.6716 13.5 21 12.8284 21 12C21 11.1716 21.6716 10.5 22.5 10.5C23.3284 10.5 24 11.1716 24 12Z" fill="white"/>
<path d="M24 19C24 19.8284 23.3284 20.5 22.5 20.5C21.6716 20.5 21 19.8284 21 19C21 18.1716 21.6716 17.5 22.5 17.5C23.3284 17.5 24 18.1716 24 19Z" fill="white"/>
</svg>
