<svg width="24" height="24" viewBox="0 0 24 24" fill="none" xmlns="http://www.w3.org/2000/svg">
<path d="M17.3333 8.6C17.3333 7.11479 16.7714 5.69041 15.7712 4.6402C14.771 3.59 13.4145 3 12 3C10.5855 3 9.22896 3.59 8.22876 4.6402C7.22857 5.69041 6.66667 7.11479 6.66667 8.6C6.66667 15.1333 4 17 4 17H20C20 17 17.3333 15.1333 17.3333 8.6Z" stroke="white" stroke-width="1.52" stroke-linecap="round" stroke-linejoin="round"/>
<path d="M14 20C13.7968 20.3042 13.505 20.5566 13.154 20.7321C12.803 20.9076 12.4051 21 12 21C11.5949 21 11.197 20.9076 10.846 20.7321C10.495 20.5566 10.2032 20.3042 10 20" stroke="white" stroke-width="2" stroke-linecap="round" stroke-linejoin="round"/>
</svg>
