<svg width="24" height="24" viewBox="0 0 24 24" fill="none" xmlns="http://www.w3.org/2000/svg">
<path d="M10 14L14 16M14 8L10 10M20 7C20 8.65685 18.6569 10 17 10C15.3431 10 14 8.65685 14 7C14 5.34315 15.3431 4 17 4C18.6569 4 20 5.34315 20 7ZM10 12C10 13.6569 8.65685 15 7 15C5.34315 15 4 13.6569 4 12C4 10.3431 5.34315 9 7 9C8.65685 9 10 10.3431 10 12ZM20 17C20 18.6569 18.6569 20 17 20C15.3431 20 14 18.6569 14 17C14 15.3431 15.3431 14 17 14C18.6569 14 20 15.3431 20 17Z" stroke="#7A8298" stroke-width="1.5" stroke-linecap="round" stroke-linejoin="round"/>
</svg>
