<svg width="24" height="24" viewBox="0 0 24 24" fill="none" xmlns="http://www.w3.org/2000/svg">
<path d="M15.8473 4.66848C16.046 4.45654 16.2819 4.28843 16.5415 4.17373C16.8011 4.05903 17.0793 4 17.3603 4C17.6413 4 17.9195 4.05903 18.1791 4.17373C18.4387 4.28843 18.6746 4.45654 18.8733 4.66848C19.072 4.88041 19.2296 5.13201 19.3371 5.40891C19.4447 5.68582 19.5 5.9826 19.5 6.28232C19.5 6.58204 19.4447 6.87882 19.3371 7.15573C19.2296 7.43263 19.072 7.68423 18.8733 7.89617L8.66069 18.7896L4.5 20L5.63473 15.5619L15.8473 4.66848Z" stroke="white" stroke-width="2" stroke-linecap="round" stroke-linejoin="round"/>
</svg>
