<svg width="24" height="24" viewBox="0 0 24 24" fill="none" xmlns="http://www.w3.org/2000/svg">
<path d="M12 3C16.9706 3 21 7.02944 21 12C21 16.9706 16.9706 21 12 21C7.02944 21 3 16.9706 3 12C3 7.02944 7.02944 3 12 3ZM15.6836 8.94824C15.8135 8.5576 15.4424 8.18648 15.0518 8.31641L10.2373 9.9209C10.088 9.97067 9.97067 10.088 9.9209 10.2373L8.31641 15.0518C8.18648 15.4424 8.5576 15.8135 8.94824 15.6836L13.7627 14.0791C13.912 14.0293 14.0293 13.912 14.0791 13.7627L15.6836 8.94824Z" fill="#3C4256"/>
</svg>
